<?xml version="1.0" encoding="utf-8"?>
<svg xmlns="http://www.w3.org/2000/svg" viewBox="0 0 39.087 39.989" width="480" height="480">
  <g data-name="Слой 2">
    <path fill="#7cb342" d="M36,23.984l-1-5,4-2v-5l-5,1-4-4H25.91a5.993,5.993,0,0,1-11.82,0H8l-2,2,2,1v3H4l-4,7,4,3v4.282l4,1.718v4l3,3,8,1,1-4h3s9,5.2,9,5,4-4,4-4l-2.978-2.022,6.065-7.109Z" />
    <path fill="#ff3d00" d="M20,0a8,8,0,0,0-8,8c0,4.42,8,14.984,8,14.984S28,12.42,28,8A8,8,0,0,0,20,0Zm0,11.984a4,4,0,1,1,4-4A4,4,0,0,1,20,11.984Z" />
    <circle cx="12" cy="24.984" r="2" fill="#33691e" />
  </g>
</svg>