<?xml version="1.0" encoding="utf-8"?>
<svg xmlns="http://www.w3.org/2000/svg" viewBox="0 0 48 48" width="480" height="480">
  <path fill="#e1bee7" d="M30.5,31C23.1,31,17,24.9,17,17.5S23.1,4,30.5,4C37.9,4,44,10.1,44,17.5S37.9,31,30.5,31z M30.5,8 c-5.2,0-9.5,4.3-9.5,9.5s4.3,9.5,9.5,9.5s9.5-4.3,9.5-9.5S35.7,8,30.5,8z" />
  <path fill="#ce93d8" d="M37,24.5C37,32,31,38,23.5,38S10,32,10,24.5S16,11,23.5,11S37,17,37,24.5z" />
  <path fill="#9c27b0" d="M31,30.5C31,38,25,44,17.5,44S4,38,4,30.5S10,17,17.5,17S31,23,31,30.5z" />
</svg>